<?xml version="1.0" encoding="UTF-8"?>
<svg version="1.1" xmlns="http://www.w3.org/2000/svg" width="1184" height="1184">
<path d="M0 0 C61.05 0 122.1 0 185 0 C185 12.21 185 24.42 185 37 C197.21 37 209.42 37 222 37 C222 49.21 222 61.42 222 74 C234.21 74 246.42 74 259 74 C259 98.42 259 122.84 259 148 C271.21 148 283.42 148 296 148 C296 160.21 296 172.42 296 185 C308.21 185 320.42 185 333 185 C333 197.21 333 209.42 333 222 C345.21 222 357.42 222 370 222 C370 283.05 370 344.1 370 407 C357.79 407 345.58 407 333 407 C333 419.21 333 431.42 333 444 C320.79 444 308.58 444 296 444 C296 456.21 296 468.42 296 481 C271.58 481 247.16 481 222 481 C222 493.21 222 505.42 222 518 C197.58 518 173.16 518 148 518 C148 530.21 148 542.42 148 555 C99.16 555 50.32 555 0 555 C0 567.21 0 579.42 0 592 C-12.21 592 -24.42 592 -37 592 C-37 604.21 -37 616.42 -37 629 C-49.21 629 -61.42 629 -74 629 C-74 641.21 -74 653.42 -74 666 C-98.42 666 -122.84 666 -148 666 C-148 653.79 -148 641.58 -148 629 C-172.42 629 -196.84 629 -222 629 C-222 616.79 -222 604.58 -222 592 C-234.21 592 -246.42 592 -259 592 C-259 579.79 -259 567.58 -259 555 C-271.21 555 -283.42 555 -296 555 C-296 530.58 -296 506.16 -296 481 C-283.79 481 -271.58 481 -259 481 C-259 468.79 -259 456.58 -259 444 C-271.21 444 -283.42 444 -296 444 C-296 407.37 -296 370.74 -296 333 C-308.21 333 -320.42 333 -333 333 C-333 296.37 -333 259.74 -333 222 C-345.21 222 -357.42 222 -370 222 C-370 173.16 -370 124.32 -370 74 C-357.79 74 -345.58 74 -333 74 C-333 61.79 -333 49.58 -333 37 C-308.58 37 -284.16 37 -259 37 C-259 49.21 -259 61.42 -259 74 C-246.79 74 -234.58 74 -222 74 C-222 122.84 -222 171.68 -222 222 C-209.79 222 -197.58 222 -185 222 C-185 246.42 -185 270.84 -185 296 C-172.79 296 -160.58 296 -148 296 C-148 283.79 -148 271.58 -148 259 C-135.79 259 -123.58 259 -111 259 C-111 210.16 -111 161.32 -111 111 C-98.79 111 -86.58 111 -74 111 C-74 98.79 -74 86.58 -74 74 C-61.79 74 -49.58 74 -37 74 C-37 61.79 -37 49.58 -37 37 C-24.79 37 -12.58 37 0 37 C0 24.79 0 12.58 0 0 Z M-333 111 C-333 123.21 -333 135.42 -333 148 C-320.79 148 -308.58 148 -296 148 C-296 135.79 -296 123.58 -296 111 C-308.21 111 -320.42 111 -333 111 Z " fill="#DE42B7" transform="translate(555,148)"/>
<path d="M0 0 C24.42 0 48.84 0 74 0 C74 12.21 74 24.42 74 37 C86.21 37 98.42 37 111 37 C111 85.84 111 134.68 111 185 C123.21 185 135.42 185 148 185 C148 209.42 148 233.84 148 259 C160.21 259 172.42 259 185 259 C185 246.79 185 234.58 185 222 C197.21 222 209.42 222 222 222 C222 173.16 222 124.32 222 74 C234.21 74 246.42 74 259 74 C259 61.79 259 49.58 259 37 C271.21 37 283.42 37 296 37 C296 49.21 296 61.42 296 74 C320.42 74 344.84 74 370 74 C370 86.21 370 98.42 370 111 C345.58 111 321.16 111 296 111 C296 135.42 296 159.84 296 185 C308.21 185 320.42 185 333 185 C333 172.79 333 160.58 333 148 C345.21 148 357.42 148 370 148 C370 172.42 370 196.84 370 222 C382.21 222 394.42 222 407 222 C407 234.21 407 246.42 407 259 C394.79 259 382.58 259 370 259 C370 271.21 370 283.42 370 296 C345.58 296 321.16 296 296 296 C296 283.79 296 271.58 296 259 C283.79 259 271.58 259 259 259 C259 271.21 259 283.42 259 296 C246.79 296 234.58 296 222 296 C222 308.21 222 320.42 222 333 C209.79 333 197.58 333 185 333 C185 320.79 185 308.58 185 296 C172.79 296 160.58 296 148 296 C148 320.42 148 344.84 148 370 C172.42 370 196.84 370 222 370 C222 382.21 222 394.42 222 407 C209.79 407 197.58 407 185 407 C185 419.21 185 431.42 185 444 C172.79 444 160.58 444 148 444 C148 456.21 148 468.42 148 481 C160.21 481 172.42 481 185 481 C185 517.63 185 554.26 185 592 C160.58 592 136.16 592 111 592 C111 579.79 111 567.58 111 555 C98.79 555 86.58 555 74 555 C74 542.79 74 530.58 74 518 C61.79 518 49.58 518 37 518 C37 493.58 37 469.16 37 444 C49.21 444 61.42 444 74 444 C74 431.79 74 419.58 74 407 C61.79 407 49.58 407 37 407 C37 370.37 37 333.74 37 296 C24.79 296 12.58 296 0 296 C0 259.37 0 222.74 0 185 C-12.21 185 -24.42 185 -37 185 C-37 136.16 -37 87.32 -37 37 C-24.79 37 -12.58 37 0 37 C0 24.79 0 12.58 0 0 Z M0 74 C0 86.21 0 98.42 0 111 C12.21 111 24.42 111 37 111 C37 98.79 37 86.58 37 74 C24.79 74 12.58 74 0 74 Z " fill="#60B4DE" transform="translate(222,185)"/>
<path d="M0 0 C61.05 0 122.1 0 185 0 C185 12.21 185 24.42 185 37 C197.21 37 209.42 37 222 37 C222 49.21 222 61.42 222 74 C234.21 74 246.42 74 259 74 C259 110.63 259 147.26 259 185 C246.79 185 234.58 185 222 185 C222 197.21 222 209.42 222 222 C209.79 222 197.58 222 185 222 C185 246.42 185 270.84 185 296 C160.58 296 136.16 296 111 296 C111 308.21 111 320.42 111 333 C86.58 333 62.16 333 37 333 C37 320.79 37 308.58 37 296 C49.21 296 61.42 296 74 296 C74 283.79 74 271.58 74 259 C61.79 259 49.58 259 37 259 C37 234.58 37 210.16 37 185 C24.79 185 12.58 185 0 185 C0 197.21 0 209.42 0 222 C-12.21 222 -24.42 222 -37 222 C-37 197.58 -37 173.16 -37 148 C-12.58 148 11.84 148 37 148 C37 135.79 37 123.58 37 111 C12.58 111 -11.84 111 -37 111 C-37 86.58 -37 62.16 -37 37 C-24.79 37 -12.58 37 0 37 C0 24.79 0 12.58 0 0 Z " fill="#DE8AC9" transform="translate(555,148)"/>
<path d="M0 0 C12.21 0 24.42 0 37 0 C37 61.05 37 122.1 37 185 C24.79 185 12.58 185 0 185 C0 197.21 0 209.42 0 222 C-12.21 222 -24.42 222 -37 222 C-37 234.21 -37 246.42 -37 259 C-61.42 259 -85.84 259 -111 259 C-111 271.21 -111 283.42 -111 296 C-135.42 296 -159.84 296 -185 296 C-185 308.21 -185 320.42 -185 333 C-233.84 333 -282.68 333 -333 333 C-333 345.21 -333 357.42 -333 370 C-345.21 370 -357.42 370 -370 370 C-370 345.58 -370 321.16 -370 296 C-333.37 296 -296.74 296 -259 296 C-259 283.79 -259 271.58 -259 259 C-246.79 259 -234.58 259 -222 259 C-222 246.79 -222 234.58 -222 222 C-173.16 222 -124.32 222 -74 222 C-74 209.79 -74 197.58 -74 185 C-110.63 185 -147.26 185 -185 185 C-185 172.79 -185 160.58 -185 148 C-136.16 148 -87.32 148 -37 148 C-37 135.79 -37 123.58 -37 111 C-24.79 111 -12.58 111 0 111 C0 74.37 0 37.74 0 0 Z " fill="#000000" transform="translate(888,370)"/>
<path d="M0 0 C12.21 0 24.42 0 37 0 C37 12.21 37 24.42 37 37 C49.21 37 61.42 37 74 37 C74 85.84 74 134.68 74 185 C61.79 185 49.58 185 37 185 C37 197.21 37 209.42 37 222 C-48.47 222 -133.94 222 -222 222 C-222 209.79 -222 197.58 -222 185 C-197.58 185 -173.16 185 -148 185 C-148 172.79 -148 160.58 -148 148 C-123.58 148 -99.16 148 -74 148 C-74 123.58 -74 99.16 -74 74 C-61.79 74 -49.58 74 -37 74 C-37 61.79 -37 49.58 -37 37 C-24.79 37 -12.58 37 0 37 C0 24.79 0 12.58 0 0 Z " fill="#60B4DE" transform="translate(814,296)"/>
<path d="M0 0 C12.21 0 24.42 0 37 0 C37 24.42 37 48.84 37 74 C49.21 74 61.42 74 74 74 C74 49.58 74 25.16 74 0 C86.21 0 98.42 0 111 0 C111 24.42 111 48.84 111 74 C135.42 74 159.84 74 185 74 C185 86.21 185 98.42 185 111 C172.79 111 160.58 111 148 111 C148 123.21 148 135.42 148 148 C135.79 148 123.58 148 111 148 C111 160.21 111 172.42 111 185 C123.21 185 135.42 185 148 185 C148 221.63 148 258.26 148 296 C123.58 296 99.16 296 74 296 C74 283.79 74 271.58 74 259 C61.79 259 49.58 259 37 259 C37 246.79 37 234.58 37 222 C24.79 222 12.58 222 0 222 C0 197.58 0 173.16 0 148 C12.21 148 24.42 148 37 148 C37 135.79 37 123.58 37 111 C24.79 111 12.58 111 0 111 C0 74.37 0 37.74 0 0 Z " fill="#673AB7" transform="translate(259,481)"/>
<path d="M0 0 C12.21 0 24.42 0 37 0 C37 12.21 37 24.42 37 37 C61.42 37 85.84 37 111 37 C111 49.21 111 61.42 111 74 C86.58 74 62.16 74 37 74 C37 98.42 37 122.84 37 148 C49.21 148 61.42 148 74 148 C74 135.79 74 123.58 74 111 C86.21 111 98.42 111 111 111 C111 135.42 111 159.84 111 185 C123.21 185 135.42 185 148 185 C148 197.21 148 209.42 148 222 C135.79 222 123.58 222 111 222 C111 234.21 111 246.42 111 259 C86.58 259 62.16 259 37 259 C37 246.79 37 234.58 37 222 C24.79 222 12.58 222 0 222 C0 209.79 0 197.58 0 185 C-12.21 185 -24.42 185 -37 185 C-37 136.16 -37 87.32 -37 37 C-24.79 37 -12.58 37 0 37 C0 24.79 0 12.58 0 0 Z " fill="#DE42B7" transform="translate(481,222)"/>
<path d="M0 0 C12.21 0 24.42 0 37 0 C37 12.21 37 24.42 37 37 C49.21 37 61.42 37 74 37 C74 49.21 74 61.42 74 74 C86.21 74 98.42 74 111 74 C111 110.63 111 147.26 111 185 C98.79 185 86.58 185 74 185 C74 197.21 74 209.42 74 222 C49.58 222 25.16 222 0 222 C0 173.16 0 124.32 0 74 C-12.21 74 -24.42 74 -37 74 C-37 61.79 -37 49.58 -37 37 C-24.79 37 -12.58 37 0 37 C0 24.79 0 12.58 0 0 Z " fill="#60B4DE" transform="translate(407,592)"/>
<path d="M0 0 C36.63 0 73.26 0 111 0 C111 12.21 111 24.42 111 37 C123.21 37 135.42 37 148 37 C148 49.21 148 61.42 148 74 C172.42 74 196.84 74 222 74 C222 98.42 222 122.84 222 148 C197.58 148 173.16 148 148 148 C148 160.21 148 172.42 148 185 C123.58 185 99.16 185 74 185 C74 172.79 74 160.58 74 148 C86.21 148 98.42 148 111 148 C111 135.79 111 123.58 111 111 C98.79 111 86.58 111 74 111 C74 86.58 74 62.16 74 37 C61.79 37 49.58 37 37 37 C37 49.21 37 61.42 37 74 C24.79 74 12.58 74 0 74 C0 49.58 0 25.16 0 0 Z " fill="#DE42B7" transform="translate(518,296)"/>
<path d="M0 0 C36.63 0 73.26 0 111 0 C111 24.42 111 48.84 111 74 C86.58 74 62.16 74 37 74 C37 86.21 37 98.42 37 111 C-11.84 111 -60.68 111 -111 111 C-111 123.21 -111 135.42 -111 148 C-123.21 148 -135.42 148 -148 148 C-148 123.58 -148 99.16 -148 74 C-111.37 74 -74.74 74 -37 74 C-37 61.79 -37 49.58 -37 37 C-24.79 37 -12.58 37 0 37 C0 24.79 0 12.58 0 0 Z " fill="#60B4DE" transform="translate(666,592)"/>
<path d="M0 0 C24.42 0 48.84 0 74 0 C74 12.21 74 24.42 74 37 C110.63 37 147.26 37 185 37 C185 49.21 185 61.42 185 74 C136.16 74 87.32 74 37 74 C37 86.21 37 98.42 37 111 C24.79 111 12.58 111 0 111 C0 123.21 0 135.42 0 148 C-24.42 148 -48.84 148 -74 148 C-74 135.79 -74 123.58 -74 111 C-61.79 111 -49.58 111 -37 111 C-37 98.79 -37 86.58 -37 74 C-24.79 74 -12.58 74 0 74 C0 49.58 0 25.16 0 0 Z " fill="#673AB7" transform="translate(629,518)"/>
<path d="M0 0 C12.21 0 24.42 0 37 0 C37 24.42 37 48.84 37 74 C49.21 74 61.42 74 74 74 C74 49.58 74 25.16 74 0 C86.21 0 98.42 0 111 0 C111 24.42 111 48.84 111 74 C135.42 74 159.84 74 185 74 C185 86.21 185 98.42 185 111 C148.37 111 111.74 111 74 111 C74 123.21 74 135.42 74 148 C61.79 148 49.58 148 37 148 C37 135.79 37 123.58 37 111 C24.79 111 12.58 111 0 111 C0 74.37 0 37.74 0 0 Z " fill="#000000" transform="translate(259,481)"/>
<path d="M0 0 C24.42 0 48.84 0 74 0 C74 12.21 74 24.42 74 37 C110.63 37 147.26 37 185 37 C185 49.21 185 61.42 185 74 C99.53 74 14.06 74 -74 74 C-74 61.79 -74 49.58 -74 37 C-49.58 37 -25.16 37 0 37 C0 24.79 0 12.58 0 0 Z " fill="#673AB7" transform="translate(666,444)"/>
<path d="M0 0 C12.21 0 24.42 0 37 0 C37 61.05 37 122.1 37 185 C12.58 185 -11.84 185 -37 185 C-37 160.58 -37 136.16 -37 111 C-24.79 111 -12.58 111 0 111 C0 74.37 0 37.74 0 0 Z " fill="#000000" transform="translate(888,370)"/>
<path d="M0 0 C61.05 0 122.1 0 185 0 C185 12.21 185 24.42 185 37 C136.16 37 87.32 37 37 37 C37 49.21 37 61.42 37 74 C24.79 74 12.58 74 0 74 C0 49.58 0 25.16 0 0 Z " fill="#000000" transform="translate(518,666)"/>
<path d="M0 0 C24.42 0 48.84 0 74 0 C74 24.42 74 48.84 74 74 C61.79 74 49.58 74 37 74 C37 86.21 37 98.42 37 111 C24.79 111 12.58 111 0 111 C0 98.79 0 86.58 0 74 C-12.21 74 -24.42 74 -37 74 C-37 61.79 -37 49.58 -37 37 C-24.79 37 -12.58 37 0 37 C0 24.79 0 12.58 0 0 Z " fill="#DE8AC9" transform="translate(407,407)"/>
<path d="M0 0 C36.63 0 73.26 0 111 0 C111 36.63 111 73.26 111 111 C98.79 111 86.58 111 74 111 C74 86.58 74 62.16 74 37 C61.79 37 49.58 37 37 37 C37 49.21 37 61.42 37 74 C24.79 74 12.58 74 0 74 C0 49.58 0 25.16 0 0 Z " fill="#FFFFFF" transform="translate(518,296)"/>
<path d="M0 0 C12.21 0 24.42 0 37 0 C37 24.42 37 48.84 37 74 C49.21 74 61.42 74 74 74 C74 86.21 74 98.42 74 111 C49.58 111 25.16 111 0 111 C0 98.79 0 86.58 0 74 C-12.21 74 -24.42 74 -37 74 C-37 61.79 -37 49.58 -37 37 C-24.79 37 -12.58 37 0 37 C0 24.79 0 12.58 0 0 Z " fill="#9E9E9E" transform="translate(555,333)"/>
<path d="M0 0 C61.05 0 122.1 0 185 0 C185 12.21 185 24.42 185 37 C123.95 37 62.9 37 0 37 C0 24.79 0 12.58 0 0 Z " fill="#000000" transform="translate(555,148)"/>
<path d="M0 0 C24.42 0 48.84 0 74 0 C74 12.21 74 24.42 74 37 C61.79 37 49.58 37 37 37 C37 49.21 37 61.42 37 74 C12.58 74 -11.84 74 -37 74 C-37 61.79 -37 49.58 -37 37 C-24.79 37 -12.58 37 0 37 C0 24.79 0 12.58 0 0 Z " fill="#A25DDE" transform="translate(592,592)"/>
<path d="M0 0 C12.21 0 24.42 0 37 0 C37 48.84 37 97.68 37 148 C24.79 148 12.58 148 0 148 C0 99.16 0 50.32 0 0 Z " fill="#000000" transform="translate(444,259)"/>
<path d="M0 0 C12.21 0 24.42 0 37 0 C37 48.84 37 97.68 37 148 C24.79 148 12.58 148 0 148 C0 99.16 0 50.32 0 0 Z " fill="#000000" transform="translate(296,222)"/>
<path d="M0 0 C24.42 0 48.84 0 74 0 C74 24.42 74 48.84 74 74 C49.58 74 25.16 74 0 74 C0 49.58 0 25.16 0 0 Z " fill="#FFFFFF" transform="translate(222,185)"/>
<path d="M0 0 C12.21 0 24.42 0 37 0 C37 48.84 37 97.68 37 148 C24.79 148 12.58 148 0 148 C0 99.16 0 50.32 0 0 Z " fill="#000000" transform="translate(185,222)"/>
<path d="M0 0 C36.63 0 73.26 0 111 0 C111 12.21 111 24.42 111 37 C74.37 37 37.74 37 0 37 C0 24.79 0 12.58 0 0 Z " fill="#A25DDE" transform="translate(703,555)"/>
<path d="M0 0 C36.63 0 73.26 0 111 0 C111 12.21 111 24.42 111 37 C74.37 37 37.74 37 0 37 C0 24.79 0 12.58 0 0 Z " fill="#000000" transform="translate(592,481)"/>
<path d="M0 0 C12.21 0 24.42 0 37 0 C37 36.63 37 73.26 37 111 C24.79 111 12.58 111 0 111 C0 74.37 0 37.74 0 0 Z " fill="#000000" transform="translate(222,370)"/>
<path d="M0 0 C24.42 0 48.84 0 74 0 C74 12.21 74 24.42 74 37 C49.58 37 25.16 37 0 37 C0 24.79 0 12.58 0 0 Z " fill="#000000" transform="translate(407,777)"/>
<path d="M0 0 C24.42 0 48.84 0 74 0 C74 12.21 74 24.42 74 37 C49.58 37 25.16 37 0 37 C0 24.79 0 12.58 0 0 Z " fill="#000000" transform="translate(333,740)"/>
<path d="M0 0 C24.42 0 48.84 0 74 0 C74 12.21 74 24.42 74 37 C49.58 37 25.16 37 0 37 C0 24.79 0 12.58 0 0 Z " fill="#000000" transform="translate(703,629)"/>
<path d="M0 0 C12.21 0 24.42 0 37 0 C37 24.42 37 48.84 37 74 C24.79 74 12.58 74 0 74 C0 49.58 0 25.16 0 0 Z " fill="#000000" transform="translate(259,629)"/>
<path d="M0 0 C12.21 0 24.42 0 37 0 C37 24.42 37 48.84 37 74 C24.79 74 12.58 74 0 74 C0 49.58 0 25.16 0 0 Z " fill="#673AB7" transform="translate(296,481)"/>
<path d="M0 0 C24.42 0 48.84 0 74 0 C74 12.21 74 24.42 74 37 C49.58 37 25.16 37 0 37 C0 24.79 0 12.58 0 0 Z " fill="#000000" transform="translate(518,444)"/>
<path d="M0 0 C12.21 0 24.42 0 37 0 C37 24.42 37 48.84 37 74 C24.79 74 12.58 74 0 74 C0 49.58 0 25.16 0 0 Z " fill="#673AB7" transform="translate(851,407)"/>
<path d="M0 0 C12.21 0 24.42 0 37 0 C37 24.42 37 48.84 37 74 C24.79 74 12.58 74 0 74 C0 49.58 0 25.16 0 0 Z " fill="#000000" transform="translate(333,370)"/>
<path d="M0 0 C12.21 0 24.42 0 37 0 C37 24.42 37 48.84 37 74 C24.79 74 12.58 74 0 74 C0 49.58 0 25.16 0 0 Z " fill="#000000" transform="translate(777,222)"/>
<path d="M0 0 C24.42 0 48.84 0 74 0 C74 12.21 74 24.42 74 37 C49.58 37 25.16 37 0 37 C0 24.79 0 12.58 0 0 Z " fill="#000000" transform="translate(222,185)"/>
<path d="M0 0 C12.21 0 24.42 0 37 0 C37 12.21 37 24.42 37 37 C24.79 37 12.58 37 0 37 C0 24.79 0 12.58 0 0 Z " fill="#000000" transform="translate(481,740)"/>
<path d="M0 0 C12.21 0 24.42 0 37 0 C37 12.21 37 24.42 37 37 C24.79 37 12.58 37 0 37 C0 24.79 0 12.58 0 0 Z " fill="#A25DDE" transform="translate(407,740)"/>
<path d="M0 0 C12.21 0 24.42 0 37 0 C37 12.21 37 24.42 37 37 C24.79 37 12.58 37 0 37 C0 24.79 0 12.58 0 0 Z " fill="#000000" transform="translate(296,703)"/>
<path d="M0 0 C12.21 0 24.42 0 37 0 C37 12.21 37 24.42 37 37 C24.79 37 12.58 37 0 37 C0 24.79 0 12.58 0 0 Z " fill="#A25DDE" transform="translate(370,666)"/>
<path d="M0 0 C12.21 0 24.42 0 37 0 C37 12.21 37 24.42 37 37 C24.79 37 12.58 37 0 37 C0 24.79 0 12.58 0 0 Z " fill="#000000" transform="translate(481,629)"/>
<path d="M0 0 C12.21 0 24.42 0 37 0 C37 12.21 37 24.42 37 37 C24.79 37 12.58 37 0 37 C0 24.79 0 12.58 0 0 Z " fill="#000000" transform="translate(444,592)"/>
<path d="M0 0 C12.21 0 24.42 0 37 0 C37 12.21 37 24.42 37 37 C24.79 37 12.58 37 0 37 C0 24.79 0 12.58 0 0 Z " fill="#60B4DE" transform="translate(851,518)"/>
<path d="M0 0 C12.21 0 24.42 0 37 0 C37 12.21 37 24.42 37 37 C24.79 37 12.58 37 0 37 C0 24.79 0 12.58 0 0 Z " fill="#000000" transform="translate(370,444)"/>
<path d="M0 0 C12.21 0 24.42 0 37 0 C37 12.21 37 24.42 37 37 C24.79 37 12.58 37 0 37 C0 24.79 0 12.58 0 0 Z " fill="#673AB7" transform="translate(259,444)"/>
<path d="M0 0 C12.21 0 24.42 0 37 0 C37 12.21 37 24.42 37 37 C24.79 37 12.58 37 0 37 C0 24.79 0 12.58 0 0 Z " fill="#DE42B7" transform="translate(518,407)"/>
<path d="M0 0 C12.21 0 24.42 0 37 0 C37 12.21 37 24.42 37 37 C24.79 37 12.58 37 0 37 C0 24.79 0 12.58 0 0 Z " fill="#000000" transform="translate(481,407)"/>
<path d="M0 0 C12.21 0 24.42 0 37 0 C37 12.21 37 24.42 37 37 C24.79 37 12.58 37 0 37 C0 24.79 0 12.58 0 0 Z " fill="#000000" transform="translate(407,407)"/>
<path d="M0 0 C12.21 0 24.42 0 37 0 C37 12.21 37 24.42 37 37 C24.79 37 12.58 37 0 37 C0 24.79 0 12.58 0 0 Z " fill="#A25DDE" transform="translate(259,407)"/>
<path d="M0 0 C12.21 0 24.42 0 37 0 C37 12.21 37 24.42 37 37 C24.79 37 12.58 37 0 37 C0 24.79 0 12.58 0 0 Z " fill="#000000" transform="translate(851,333)"/>
<path d="M0 0 C12.21 0 24.42 0 37 0 C37 12.21 37 24.42 37 37 C24.79 37 12.58 37 0 37 C0 24.79 0 12.58 0 0 Z " fill="#000000" transform="translate(555,333)"/>
<path d="M0 0 C12.21 0 24.42 0 37 0 C37 12.21 37 24.42 37 37 C24.79 37 12.58 37 0 37 C0 24.79 0 12.58 0 0 Z " fill="#673AB7" transform="translate(222,333)"/>
<path d="M0 0 C12.21 0 24.42 0 37 0 C37 12.21 37 24.42 37 37 C24.79 37 12.58 37 0 37 C0 24.79 0 12.58 0 0 Z " fill="#000000" transform="translate(814,296)"/>
<path d="M0 0 C12.21 0 24.42 0 37 0 C37 12.21 37 24.42 37 37 C24.79 37 12.58 37 0 37 C0 24.79 0 12.58 0 0 Z " fill="#FFFFFF" transform="translate(222,296)"/>
<path d="M0 0 C12.21 0 24.42 0 37 0 C37 12.21 37 24.42 37 37 C24.79 37 12.58 37 0 37 C0 24.79 0 12.58 0 0 Z " fill="#000000" transform="translate(481,222)"/>
<path d="M0 0 C12.21 0 24.42 0 37 0 C37 12.21 37 24.42 37 37 C24.79 37 12.58 37 0 37 C0 24.79 0 12.58 0 0 Z " fill="#000000" transform="translate(740,185)"/>
<path d="M0 0 C12.21 0 24.42 0 37 0 C37 12.21 37 24.42 37 37 C24.79 37 12.58 37 0 37 C0 24.79 0 12.58 0 0 Z " fill="#000000" transform="translate(518,185)"/>
</svg>
